<svg xmlns="http://www.w3.org/2000/svg" viewBox="0 0 464.11 434.33"><defs><style>.cls-1{fill:#f1f2f2;}.cls-2{fill:#fff;}.cls-3{fill:#3f2241;}.cls-4{fill:#a7a9ac;}.cls-5,.cls-7{fill:#9f67a3;}.cls-6{fill:#703d73;}.cls-7{opacity:0.5;}</style></defs><title>img-rdv-2</title><g id="Calque_2" data-name="Calque 2"><g id="Layer_3" data-name="Layer 3"><rect class="cls-1" x="443.01" y="101.13" width="21.1" height="21.1" transform="translate(907.13 223.36) rotate(180)"/><rect class="cls-1" x="408.96" y="101.13" width="21.1" height="21.1" transform="translate(839.02 223.36) rotate(180)"/><rect class="cls-1" x="374.91" y="101.13" width="21.1" height="21.1" transform="translate(770.91 223.36) rotate(180)"/><rect class="cls-1" x="340.85" y="101.13" width="21.1" height="21.1" transform="translate(702.8 223.36) rotate(180)"/><rect class="cls-1" x="306.8" y="101.13" width="21.1" height="21.1" transform="translate(634.7 223.36) rotate(180)"/><rect class="cls-1" x="272.75" y="101.13" width="21.1" height="21.1" transform="translate(566.59 223.36) rotate(180)"/><rect class="cls-1" x="238.69" y="101.13" width="21.1" height="21.1" transform="translate(498.48 223.36) rotate(180)"/><rect class="cls-1" x="443.01" y="67.42" width="21.1" height="21.1" transform="translate(907.13 155.94) rotate(180)"/><rect class="cls-1" x="408.96" y="67.42" width="21.1" height="21.1" transform="translate(839.02 155.94) rotate(180)"/><rect class="cls-1" x="374.91" y="67.42" width="21.1" height="21.1" transform="translate(770.91 155.94) rotate(180)"/><rect class="cls-1" x="340.85" y="67.42" width="21.1" height="21.1" transform="translate(702.8 155.94) rotate(180)"/><rect class="cls-1" x="306.8" y="67.42" width="21.1" height="21.1" transform="translate(634.7 155.94) rotate(180)"/><rect class="cls-1" x="272.75" y="67.42" width="21.1" height="21.1" transform="translate(566.59 155.94) rotate(180)"/><rect class="cls-1" x="238.69" y="67.42" width="21.1" height="21.1" transform="translate(498.48 155.94) rotate(180)"/><rect class="cls-1" x="443.01" y="33.71" width="21.1" height="21.1" transform="translate(907.13 88.52) rotate(180)"/><rect class="cls-1" x="408.96" y="33.71" width="21.1" height="21.1" transform="translate(839.02 88.52) rotate(180)"/><rect class="cls-1" x="374.91" y="33.71" width="21.1" height="21.1" transform="translate(770.91 88.52) rotate(180)"/><rect class="cls-1" x="340.85" y="33.71" width="21.1" height="21.1" transform="translate(702.8 88.52) rotate(180)"/><rect class="cls-1" x="306.8" y="33.71" width="21.1" height="21.1" transform="translate(634.7 88.52) rotate(180)"/><rect class="cls-1" x="272.75" y="33.71" width="21.1" height="21.1" transform="translate(566.59 88.52) rotate(180)"/><rect class="cls-1" x="238.69" y="33.71" width="21.1" height="21.1" transform="translate(498.48 88.52) rotate(180)"/><rect class="cls-1" x="443.01" width="21.1" height="21.1" transform="translate(907.13 21.1) rotate(180)"/><rect class="cls-1" x="408.96" width="21.1" height="21.1" transform="translate(839.02 21.1) rotate(180)"/><rect class="cls-1" x="374.91" width="21.1" height="21.1" transform="translate(770.91 21.1) rotate(180)"/><rect class="cls-1" x="340.85" width="21.1" height="21.1" transform="translate(702.8 21.1) rotate(180)"/><rect class="cls-1" x="306.8" width="21.1" height="21.1" transform="translate(634.7 21.1) rotate(180)"/><rect class="cls-1" x="272.75" width="21.1" height="21.1" transform="translate(566.59 21.1) rotate(180)"/><rect class="cls-1" x="238.69" width="21.1" height="21.1" transform="translate(498.48 21.1) rotate(180)"/><rect class="cls-1" x="204.32" y="101.13" width="21.1" height="21.1" transform="translate(429.74 223.36) rotate(180)"/><rect class="cls-1" x="170.27" y="101.13" width="21.1" height="21.1" transform="translate(361.64 223.36) rotate(180)"/><rect class="cls-1" x="136.22" y="101.13" width="21.1" height="21.1" transform="translate(293.53 223.36) rotate(180)"/><rect class="cls-1" x="102.16" y="101.13" width="21.1" height="21.1" transform="translate(225.42 223.36) rotate(180)"/><rect class="cls-1" x="68.11" y="101.13" width="21.1" height="21.1" transform="translate(157.31 223.36) rotate(180)"/><rect class="cls-1" x="34.05" y="101.13" width="21.1" height="21.1" transform="translate(89.2 223.36) rotate(180)"/><rect class="cls-1" y="101.13" width="21.1" height="21.1" transform="translate(21.1 223.36) rotate(180)"/><rect class="cls-1" x="204.32" y="67.42" width="21.1" height="21.1" transform="translate(429.74 155.94) rotate(180)"/><rect class="cls-1" x="170.27" y="67.42" width="21.1" height="21.1" transform="translate(361.64 155.94) rotate(180)"/><rect class="cls-1" x="136.22" y="67.42" width="21.1" height="21.1" transform="translate(293.53 155.94) rotate(180)"/><rect class="cls-1" x="102.16" y="67.42" width="21.1" height="21.1" transform="translate(225.42 155.94) rotate(180)"/><rect class="cls-1" x="68.11" y="67.42" width="21.1" height="21.1" transform="translate(157.31 155.94) rotate(180)"/><rect class="cls-1" x="34.05" y="67.42" width="21.1" height="21.1" transform="translate(89.2 155.94) rotate(180)"/><rect class="cls-1" y="67.42" width="21.1" height="21.1" transform="translate(21.1 155.94) rotate(180)"/><rect class="cls-1" x="204.32" y="33.71" width="21.1" height="21.1" transform="translate(429.74 88.52) rotate(180)"/><rect class="cls-1" x="170.27" y="33.71" width="21.1" height="21.1" transform="translate(361.64 88.52) rotate(180)"/><rect class="cls-1" x="136.22" y="33.71" width="21.1" height="21.1" transform="translate(293.53 88.52) rotate(180)"/><rect class="cls-1" x="102.16" y="33.71" width="21.1" height="21.1" transform="translate(225.42 88.52) rotate(180)"/><rect class="cls-1" x="68.11" y="33.71" width="21.1" height="21.1" transform="translate(157.31 88.52) rotate(180)"/><rect class="cls-1" x="34.05" y="33.71" width="21.1" height="21.1" transform="translate(89.2 88.52) rotate(180)"/><rect class="cls-1" y="33.71" width="21.1" height="21.1" transform="translate(21.1 88.52) rotate(180)"/><rect class="cls-1" x="204.32" width="21.1" height="21.1" transform="translate(429.74 21.1) rotate(180)"/><rect class="cls-1" x="170.27" width="21.1" height="21.1" transform="translate(361.64 21.1) rotate(180)"/><rect class="cls-1" x="136.22" width="21.1" height="21.1" transform="translate(293.53 21.1) rotate(180)"/><rect class="cls-1" x="102.16" width="21.1" height="21.1" transform="translate(225.42 21.1) rotate(180)"/><rect class="cls-1" x="68.11" width="21.1" height="21.1" transform="translate(157.31 21.1) rotate(180)"/><rect class="cls-1" x="34.05" width="21.1" height="21.1" transform="translate(89.2 21.1) rotate(180)"/><rect class="cls-1" width="21.1" height="21.1" transform="translate(21.1 21.1) rotate(180)"/><circle class="cls-2" cx="230.99" cy="229.62" r="201.99" transform="translate(-94.71 230.59) rotate(-45)"/><path class="cls-3" d="M231,434.33c-5.14,0-10.33-.2-15.43-.58a2.72,2.72,0,1,1,.4-5.42c5,.37,10,.56,15,.56a199.18,199.18,0,0,0,61.66-9.72,2.71,2.71,0,0,1,2.84.74,2.73,2.73,0,0,1,1.81-2.32,199.57,199.57,0,0,0,38.3-18.33,2.72,2.72,0,0,1,2.86,4.62,204.64,204.64,0,0,1-39.35,18.84,2.72,2.72,0,0,1-2.91-.73,2.73,2.73,0,0,1-1.87,2.35A204.5,204.5,0,0,1,231,434.33ZM173.43,426a2.64,2.64,0,0,1-.78-.12c-1.61-.47-3.23-1-4.81-1.49a2.72,2.72,0,1,1,1.67-5.17c1.55.5,3.12,1,4.69,1.45a2.72,2.72,0,0,1-.77,5.33Zm-73.12-39.64a2.71,2.71,0,0,1-1.76-.65,206.25,206.25,0,0,1-30.07-31.6,2.7,2.7,0,0,1-.21-3,2.71,2.71,0,0,1-2.8-1.05,202.87,202.87,0,0,1-33.41-72,2.72,2.72,0,0,1,5.29-1.28,197.41,197.41,0,0,0,32.51,70.05,2.71,2.71,0,0,1,.18,2.93,2.71,2.71,0,0,1,2.76,1,201,201,0,0,0,29.27,30.77,2.71,2.71,0,0,1,.32,3.83A2.74,2.74,0,0,1,100.31,386.37ZM394.43,351a2.72,2.72,0,0,1-2.2-4.32c1-1.31,1.92-2.66,2.85-4a2.72,2.72,0,1,1,4.47,3.09c-.95,1.37-1.93,2.76-2.92,4.11A2.69,2.69,0,0,1,394.43,351Zm23.43-41.89a2.91,2.91,0,0,1-1-.2,2.72,2.72,0,0,1-1.47-3.55,198.28,198.28,0,0,0,14.91-75.78v-.44a2.7,2.7,0,0,1,1.58-2.48,2.73,2.73,0,0,1-1.65-2.44,200.14,200.14,0,0,0-5.61-42.08,2.72,2.72,0,0,1,5.28-1.29,205.06,205.06,0,0,1,5.76,43.23,2.71,2.71,0,0,1-1.58,2.54,2.75,2.75,0,0,1,1.66,2.5v.46a203.52,203.52,0,0,1-15.33,77.85A2.71,2.71,0,0,1,417.86,309.15ZM29.06,237.54a2.71,2.71,0,0,1-2.71-2.65c-.05-1.67-.07-3.37-.07-5A2.73,2.73,0,0,1,29,227.12h0a2.72,2.72,0,0,1,2.72,2.72c0,1.63,0,3.28.06,4.91a2.72,2.72,0,0,1-2.65,2.79Zm15-81.81A2.71,2.71,0,0,1,41.52,152,203.83,203.83,0,0,1,62.3,113.62a2.68,2.68,0,0,1,2.78-1.12,2.73,2.73,0,0,1,.13-3,204.69,204.69,0,0,1,58.12-54,2.72,2.72,0,0,1,2.86,4.63,199.27,199.27,0,0,0-56.58,52.59,2.72,2.72,0,0,1-2.74,1.07,2.73,2.73,0,0,1-.09,2.94,198.61,198.61,0,0,0-20.23,37.35A2.72,2.72,0,0,1,44,155.73Zm350.15-42.44a2.71,2.71,0,0,1-2.19-1.12c-1-1.31-1.95-2.63-2.95-3.92a2.72,2.72,0,0,1,4.32-3.32c1,1.33,2,2.68,3,4a2.73,2.73,0,0,1-2.2,4.33ZM361.49,78.16a2.73,2.73,0,0,1-1.76-.64,198.1,198.1,0,0,0-67.47-37.58,2.7,2.7,0,0,1-1.87-2.27,2.7,2.7,0,0,1-2.82.82,199.52,199.52,0,0,0-41.78-7.6,2.72,2.72,0,0,1,.4-5.42,204.33,204.33,0,0,1,42.92,7.81A2.74,2.74,0,0,1,291,35.57a2.72,2.72,0,0,1,2.89-.8,203.43,203.43,0,0,1,69.32,38.6,2.72,2.72,0,0,1-1.76,4.79ZM163.56,41.88a2.72,2.72,0,0,1-.9-5.29c1.57-.55,3.18-1.1,4.77-1.62a2.72,2.72,0,0,1,1.69,5.17c-1.55.51-3.12,1-4.65,1.58A2.61,2.61,0,0,1,163.56,41.88Z"/><path class="cls-4" d="M232.33,419.57h0a2.73,2.73,0,0,1-2.72-2.7v0a2.71,2.71,0,0,1,2.7-2.7c3.3,0,6.65-.14,9.94-.33a2.72,2.72,0,0,1,2.88,2.55c0,.06,0,.11,0,.17a2.74,2.74,0,0,1-2.56,2.71C239.17,419.43,235.73,419.54,232.33,419.57Zm-10.11-.2h-.13c-3.4-.16-6.84-.41-10.22-.75a2.72,2.72,0,0,1-2.45-2.7,2.45,2.45,0,0,1,0-.27,2.72,2.72,0,0,1,3-2.44c3.28.33,6.62.57,9.93.73a2.72,2.72,0,0,1,2.6,2.7.71.71,0,0,1,0,.14A2.71,2.71,0,0,1,222.22,419.37Zm30.24-1a2.72,2.72,0,0,1-2.7-2.42c0-.1,0-.21,0-.31a2.72,2.72,0,0,1,2.41-2.7c3.29-.37,6.6-.84,9.85-1.39a2.73,2.73,0,0,1,3.14,2.23,3.42,3.42,0,0,1,0,.45,2.71,2.71,0,0,1-2.27,2.68c-3.36.57-6.77,1.05-10.14,1.44Zm-50.33-1a3,3,0,0,1-.42,0c-3.37-.52-6.76-1.14-10.08-1.84a2.73,2.73,0,0,1-2.16-2.68,2.48,2.48,0,0,1,.06-.54,2.75,2.75,0,0,1,3.22-2.1c3.23.68,6.53,1.28,9.79,1.78a2.73,2.73,0,0,1,2.3,2.69,3,3,0,0,1,0,.42A2.74,2.74,0,0,1,202.13,417.36ZM272.36,415a2.75,2.75,0,0,1-2.65-2.12,2.62,2.62,0,0,1-.07-.62,2.72,2.72,0,0,1,2.12-2.64c3.23-.72,6.48-1.55,9.64-2.45a2.76,2.76,0,0,1,.75-.1,2.73,2.73,0,0,1,2.61,2,2.64,2.64,0,0,1,.1.74,2.73,2.73,0,0,1-2,2.62c-3.27.92-6.61,1.77-9.93,2.52A3.07,3.07,0,0,1,272.36,415Zm-90-1.79a2.44,2.44,0,0,1-.71-.1c-3.28-.87-6.58-1.86-9.82-2.92a2.71,2.71,0,0,1-1.87-2.59,2.68,2.68,0,0,1,.13-.84,2.74,2.74,0,0,1,3.43-1.74h0c3.13,1,6.33,2,9.51,2.83a2.75,2.75,0,0,1,2,2.62,2.83,2.83,0,0,1-.1.71A2.72,2.72,0,0,1,182.37,413.2Zm109.41-3.72a2.7,2.7,0,0,1-2.57-1.83,2.65,2.65,0,0,1-.15-.87,2.72,2.72,0,0,1,1.81-2.58h0l.05,0c3.11-1.06,6.22-2.23,9.27-3.46a2.69,2.69,0,0,1,1-.2,2.72,2.72,0,0,1,2.52,1.7,2.82,2.82,0,0,1,.2,1,2.73,2.73,0,0,1-1.7,2.51c-3.17,1.28-6.4,2.49-9.6,3.59A2.94,2.94,0,0,1,291.78,409.48Zm-128.6-2.57a2.8,2.8,0,0,1-1-.18l-1.8-.72-.1,0c-.7-.28-1.43-.57-2.14-.87-1.82-.76-3.64-1.54-5.4-2.34a2.74,2.74,0,0,1-1.6-2.48,2.68,2.68,0,0,1,.24-1.12,2.72,2.72,0,0,1,3.6-1.36c1.73.79,3.49,1.55,5.25,2.28l2.1.86h0l1.82.72a2.7,2.7,0,0,1,1.74,2.52,2.65,2.65,0,0,1-.19,1A2.7,2.7,0,0,1,163.18,406.91Zm147.29-5a2.73,2.73,0,0,1-2.46-1.57,2.69,2.69,0,0,1-.26-1.15,2.73,2.73,0,0,1,1.55-2.46h0l.05,0c3-1.4,5.95-2.89,8.83-4.44a2.73,2.73,0,0,1,3.68,1.11,2.73,2.73,0,0,1-1.11,3.68c-3,1.61-6.06,3.15-9.14,4.6A2.69,2.69,0,0,1,310.47,401.92Zm-165.69-3.33a2.75,2.75,0,0,1-1.25-.31c-3-1.56-6-3.22-8.91-4.94l-.05,0h0a2.74,2.74,0,0,1-1.32-2.33,2.71,2.71,0,0,1,.38-1.38,2.74,2.74,0,0,1,2.34-1.34,2.68,2.68,0,0,1,1.38.38c2.85,1.68,5.78,3.3,8.71,4.83a2.69,2.69,0,0,1,1.46,2.43,2.63,2.63,0,0,1-.3,1.23A2.71,2.71,0,0,1,144.78,398.59Zm183.45-6.21a2.71,2.71,0,0,1-2.33-1.31,2.74,2.74,0,0,1,.91-3.74c2.82-1.71,5.63-3.53,8.35-5.39a2.71,2.71,0,0,1,3.78.7,2.78,2.78,0,0,1,.48,1.55,2.71,2.71,0,0,1-1.19,2.23c-2.8,1.92-5.69,3.79-8.59,5.56A2.71,2.71,0,0,1,328.23,392.38Zm-200.84-4.05a2.7,2.7,0,0,1-1.5-.46c-2.82-1.88-5.64-3.86-8.37-5.9a2.72,2.72,0,0,1,1.62-4.9,2.66,2.66,0,0,1,1.63.54c2.64,2,5.37,3.89,8.13,5.73a2.72,2.72,0,0,1-1.51,5ZM344.87,381a2.72,2.72,0,0,1-1.66-4.88c2.62-2,5.22-4.12,7.72-6.27l.07-.05h0a2.69,2.69,0,0,1,1.7-.6,2.72,2.72,0,0,1,1.77,4.79c-2.58,2.21-5.25,4.38-8,6.44A2.68,2.68,0,0,1,344.87,381Zm-233.66-4.73a2.72,2.72,0,0,1-1.74-.63c-2.61-2.18-5.2-4.46-7.69-6.77a2.71,2.71,0,0,1-.14-3.84,2.79,2.79,0,0,1,3.84-.14c2.42,2.24,4.93,4.45,7.46,6.56h0a2.69,2.69,0,0,1,1,2.11,2.64,2.64,0,0,1-.63,1.72A2.72,2.72,0,0,1,111.21,376.25Zm249-8.4a2.71,2.71,0,0,1-2-.84,2.74,2.74,0,0,1-.75-1.88,2.69,2.69,0,0,1,.85-2c2.38-2.27,4.74-4.65,7-7.05a2.7,2.7,0,0,1,2-.86,2.67,2.67,0,0,1,1.86.74,2.72,2.72,0,0,1,.18,3.78h0l-.06.07,0,0c-2.31,2.46-4.73,4.89-7.18,7.23A2.7,2.7,0,0,1,360.19,367.85ZM96.42,362.51a2.66,2.66,0,0,1-2-.83c-2.37-2.45-4.7-5-6.92-7.55a2.71,2.71,0,0,1,.27-3.84,2.73,2.73,0,0,1,3.83.27c2.17,2.5,4.43,5,6.73,7.34a2.72,2.72,0,0,1-2,4.61ZM374,353.16a2.72,2.72,0,0,1-2.07-4.48c2.13-2.52,4.22-5.14,6.22-7.77a2.72,2.72,0,0,1,3.81-.53,2.69,2.69,0,0,1,1.07,2.16,2.61,2.61,0,0,1-.55,1.65c-2,2.71-4.2,5.4-6.4,8A2.74,2.74,0,0,1,374,353.16ZM83.18,347.27a2.7,2.7,0,0,1-2.15-1l-.86-1.11c-1.78-2.33-3.53-4.73-5.21-7.14a2.66,2.66,0,0,1-.49-1.54,2.72,2.72,0,0,1,5-1.56c1.63,2.33,3.33,4.67,5.07,6.93l.83,1.08a2.72,2.72,0,0,1,.58,1.68,2.75,2.75,0,0,1-1.05,2.14A2.72,2.72,0,0,1,83.18,347.27Zm303-10.21a2.78,2.78,0,0,1-1.52-.47,2.72,2.72,0,0,1-1.19-2.26,2.77,2.77,0,0,1,.46-1.52c1.86-2.74,3.66-5.57,5.36-8.39a2.71,2.71,0,0,1,2.33-1.32,2.78,2.78,0,0,1,1.4.38,2.72,2.72,0,0,1,1.32,2.32,2.67,2.67,0,0,1-.39,1.41c-1.75,2.91-3.59,5.81-5.48,8.6l0,.07A2.73,2.73,0,0,1,386.22,337.06ZM71.65,330.7a2.69,2.69,0,0,1-2.31-1.29c-1.79-2.89-3.53-5.87-5.16-8.85a2.82,2.82,0,0,1-.33-1.3,2.72,2.72,0,0,1,1.42-2.39,2.64,2.64,0,0,1,1.3-.33A2.73,2.73,0,0,1,69,318c1.57,2.89,3.25,5.78,5,8.58v0a2.72,2.72,0,0,1-2.31,4.15Zm325-11a2.71,2.71,0,0,1-2.4-4c1.54-2.92,3-5.93,4.41-8.93a2.74,2.74,0,0,1,2.47-1.58,2.63,2.63,0,0,1,1.14.25,2.72,2.72,0,0,1,1.33,3.61c-1.41,3.06-2.93,6.14-4.52,9.14l0,.07A2.71,2.71,0,0,1,396.62,319.73ZM62,313a2.73,2.73,0,0,1-2.45-1.55c-1.47-3.06-2.87-6.21-4.17-9.36a2.55,2.55,0,0,1-.21-1,2.74,2.74,0,0,1,1.68-2.53,2.91,2.91,0,0,1,1-.2A2.72,2.72,0,0,1,60.38,300c1.24,3,2.58,6,4,9l0,.12a2.64,2.64,0,0,1,.27,1.17,2.73,2.73,0,0,1-1.55,2.45A2.64,2.64,0,0,1,62,313Zm343.12-11.62a2.71,2.71,0,0,1-2.72-2.72,2.65,2.65,0,0,1,.19-1c1.22-3.08,2.37-6.23,3.42-9.36a2.73,2.73,0,0,1,2.58-1.86,2.88,2.88,0,0,1,.87.14,2.73,2.73,0,0,1,1.85,2.57,2.66,2.66,0,0,1-.14.88c-1.08,3.22-2.27,6.47-3.52,9.64A2.71,2.71,0,0,1,405.09,301.37Zm-350.83-7a2.72,2.72,0,0,1-2.56-1.81c-1.13-3.21-2.18-6.49-3.13-9.76a2.65,2.65,0,0,1-.11-.74,2.75,2.75,0,0,1,2-2.63,2.85,2.85,0,0,1,.76-.11,2.73,2.73,0,0,1,2.61,2c.91,3.12,1.91,6.25,3,9.31l.06.16a2.85,2.85,0,0,1,.15.91,2.71,2.71,0,0,1-2.72,2.71Zm357.25-12.11a2.91,2.91,0,0,1-.72-.1,2.72,2.72,0,0,1-2-2.63,2.55,2.55,0,0,1,.1-.72c.88-3.18,1.68-6.43,2.38-9.66l.08-.35v.08a2.72,2.72,0,0,1,5.3.85,2.25,2.25,0,0,1-.07.58c-.72,3.32-1.54,6.67-2.45,10A2.73,2.73,0,0,1,411.51,282.22ZM48.63,275a2.72,2.72,0,0,1-2.65-2.1c-.77-3.32-1.46-6.69-2-10a2.59,2.59,0,0,1,0-.48,2.71,2.71,0,0,1,2.25-2.67,2.75,2.75,0,0,1,3.15,2.21c.56,3.21,1.22,6.43,2,9.59l0,.15a3.18,3.18,0,0,1,.07.62,2.71,2.71,0,0,1-2.11,2.65A3.17,3.17,0,0,1,48.63,275ZM415.81,262.5a3.42,3.42,0,0,1-.44,0,2.72,2.72,0,0,1-2.28-2.67,2.28,2.28,0,0,1,0-.45c.52-3.26,1-6.57,1.32-9.86a2.72,2.72,0,0,1,5.42.3,2.62,2.62,0,0,1,0,.28c-.36,3.39-.82,6.8-1.37,10.15A2.7,2.7,0,0,1,415.81,262.5ZM45.12,255.09a2.73,2.73,0,0,1-2.7-2.39c-.4-3.37-.72-6.79-1-10.2a.91.91,0,0,1,0-.17,2.72,2.72,0,0,1,5.43-.19c.22,3.3.54,6.63.93,9.9a2.06,2.06,0,0,1,0,.35,2.72,2.72,0,0,1-2.39,2.68ZM418,242.43h-.15a2.73,2.73,0,0,1-2.57-2.73v0h0v-.15c.17-3.27.26-6.6.26-9.89,0-1.74,0-3.49-.07-5.2a.2.2,0,0,1,0-.07,2.72,2.72,0,0,1,5.44-.08c.05,1.76.08,3.56.08,5.35,0,3.39-.1,6.81-.27,10.17a.13.13,0,0,1,0,.06v0A2.71,2.71,0,0,1,418,242.43ZM43.77,235a2.73,2.73,0,0,1-2.71-2.68c0-.85,0-1.74,0-2.65,0-2.52.05-5.08.15-7.59a2.72,2.72,0,0,1,5.43.11v.11c-.1,2.45-.15,4.93-.14,7.37,0,.88,0,1.75,0,2.58v0A2.72,2.72,0,0,1,43.81,235ZM417.6,217a2.74,2.74,0,0,1-2.71-2.5c-.26-3.29-.62-6.62-1.07-9.89,0-.13,0-.25,0-.38a2.72,2.72,0,0,1,5.41-.35c.46,3.35.83,6.78,1.11,10.18v.21a2.72,2.72,0,0,1-2.49,2.72Zm-373-2.19v0l-.25,0a2.69,2.69,0,0,1-2.47-2.71,1.93,1.93,0,0,1,0-.24c.31-3.39.73-6.81,1.22-10.17a2.72,2.72,0,0,1,5.41.38,2.83,2.83,0,0,1,0,.41c-.48,3.26-.88,6.59-1.18,9.88A2.72,2.72,0,0,1,44.57,214.79ZM414.89,197a2.73,2.73,0,0,1-2.67-2.21c-.62-3.25-1.34-6.52-2.13-9.71a2.89,2.89,0,0,1-.08-.65,2.7,2.7,0,0,1,2.07-2.65,2.82,2.82,0,0,1,.65-.08,2.72,2.72,0,0,1,2.63,2v.09c.81,3.27,1.55,6.62,2.18,9.94a2.24,2.24,0,0,1,.05.52,2.71,2.71,0,0,1-2.21,2.66A2.21,2.21,0,0,1,414.89,197ZM47.52,194.82a3.41,3.41,0,0,1-.55,0,2.73,2.73,0,0,1-2.17-2.66,2.5,2.5,0,0,1,.05-.55c.68-3.33,1.46-6.68,2.31-10a2.73,2.73,0,0,1,2.63-2,2.67,2.67,0,0,1,.69.09,2.72,2.72,0,0,1,2,2.63,3.09,3.09,0,0,1-.09.68c-.83,3.18-1.58,6.42-2.24,9.65v0A2.73,2.73,0,0,1,47.52,194.82ZM410,177.39a2.71,2.71,0,0,1-2.6-1.92c-1-3.15-2-6.33-3.17-9.43a2.69,2.69,0,0,1-.17-.93,2.72,2.72,0,0,1,5.28-.94c1.16,3.18,2.26,6.43,3.25,9.67l0,0a2.44,2.44,0,0,1,.11.81,2.69,2.69,0,0,1-1.92,2.58A2.72,2.72,0,0,1,410,177.39Zm-357.42-2.1a2.62,2.62,0,0,1-.83-.13,2.69,2.69,0,0,1-1.89-2.58,2.46,2.46,0,0,1,.13-.84c1-3.24,2.17-6.5,3.39-9.69A2.72,2.72,0,0,1,56,160.3a2.64,2.64,0,0,1,1,.18A2.74,2.74,0,0,1,58.67,163a2.69,2.69,0,0,1-.18,1c-1.17,3.08-2.28,6.25-3.29,9.41A2.73,2.73,0,0,1,52.61,175.29Zm350.48-16.83a2.71,2.71,0,0,1-2.5-1.64c-1.3-3-2.7-6-4.17-9a2.64,2.64,0,0,1-.28-1.2,2.72,2.72,0,0,1,5.16-1.21c1.5,3,2.95,6.16,4.29,9.28a2.76,2.76,0,0,1,.22,1.06,2.72,2.72,0,0,1-1.65,2.51A2.63,2.63,0,0,1,403.09,158.46ZM59.8,156.39a2.63,2.63,0,0,1-1.1-.24,2.72,2.72,0,0,1-1.62-2.5,2.54,2.54,0,0,1,.24-1.08c1.38-3.12,2.87-6.23,4.41-9.26a2.72,2.72,0,0,1,2.43-1.49,2.74,2.74,0,0,1,2.72,2.72,2.67,2.67,0,0,1-.3,1.24c-1.51,2.95-2.95,6-4.29,9A2.73,2.73,0,0,1,59.8,156.39Zm334.34-16a2.72,2.72,0,0,1-2.37-1.39c-1.62-2.87-3.34-5.73-5.12-8.51a2.72,2.72,0,1,1,4.59-2.93c1.81,2.84,3.58,5.78,5.25,8.73a.08.08,0,0,0,0,0h0a2.65,2.65,0,0,1,.35,1.31,2.71,2.71,0,0,1-2.72,2.74ZM69,138.39v0a2.72,2.72,0,0,1-2.34-4.09c1.7-2.92,3.5-5.84,5.36-8.68a.05.05,0,0,0,0,0l.08-.1h0a2.7,2.7,0,0,1,2.2-1.13,2.74,2.74,0,0,1,1.49.45,2.72,2.72,0,0,1,.78,3.77c-1.81,2.76-3.57,5.61-5.23,8.47A2.75,2.75,0,0,1,69,138.39Zm314.31-15v0a2.74,2.74,0,0,1-2.22-1.14c-1.92-2.68-3.94-5.35-6-7.92a2.74,2.74,0,0,1-.6-1.71,2.7,2.7,0,0,1,1-2.12,2.74,2.74,0,0,1,1.7-.59,2.7,2.7,0,0,1,2.12,1c2.12,2.65,4.2,5.39,6.19,8.15a2.73,2.73,0,0,1-2.21,4.31ZM80.07,121.5a2.71,2.71,0,0,1-2.71-2.74,2.62,2.62,0,0,1,.48-1.53h0l0-.06,0,0c2-2.71,4.1-5.42,6.26-8a2.69,2.69,0,0,1,2.1-1,2.71,2.71,0,0,1,2.1,4.44c-2.11,2.56-4.16,5.21-6.12,7.86A2.74,2.74,0,0,1,80.07,121.5Zm290.61-13.84a2.73,2.73,0,0,1-2-.91c-2.2-2.46-4.49-4.89-6.82-7.24a2.72,2.72,0,0,1,0-3.84,2.78,2.78,0,0,1,3.78-.06h0l.06.07,0,0c2.38,2.4,4.74,4.9,7,7.42a2.72,2.72,0,0,1-2,4.53ZM92.9,105.9a2.73,2.73,0,0,1-2-4.56c2.29-2.5,4.68-5,7.12-7.36a2.79,2.79,0,0,1,3.85,0,2.74,2.74,0,0,1,0,3.85c-2.36,2.31-4.69,4.72-6.92,7.16l-.07.07h0A2.75,2.75,0,0,1,92.9,105.9ZM356.45,93.35a2.73,2.73,0,0,1-1.83-.7c-2.45-2.22-5-4.4-7.56-6.47a2.75,2.75,0,0,1-1-2.13,2.78,2.78,0,0,1,.61-1.7,2.72,2.72,0,0,1,2.12-1,2.75,2.75,0,0,1,1.71.61c2.64,2.14,5.26,4.38,7.78,6.66a2.75,2.75,0,0,1,.9,2,2.74,2.74,0,0,1-2.72,2.73ZM107.31,91.77a2.72,2.72,0,0,1-1.8-4.76c2.55-2.25,5.2-4.46,7.86-6.56a2.73,2.73,0,0,1,1.69-.59,2.69,2.69,0,0,1,2.13,1,2.62,2.62,0,0,1,.59,1.67,2.72,2.72,0,0,1-1,2.15c-2.59,2-5.16,4.19-7.63,6.37A2.78,2.78,0,0,1,107.31,91.77ZM340.75,80.64a2.7,2.7,0,0,1-1.59-.52c-2.67-1.94-5.44-3.83-8.22-5.63a2.71,2.71,0,0,1-1.24-2.29,2.7,2.7,0,0,1,2.72-2.71,2.67,2.67,0,0,1,1.47.44c2.86,1.84,5.71,3.79,8.46,5.78a2.77,2.77,0,0,1,1.13,2.2,2.73,2.73,0,0,1-2.73,2.73Zm-217.6-1.38a2.73,2.73,0,0,1-2.23-1.15,2.69,2.69,0,0,1-.5-1.57,2.76,2.76,0,0,1,1.16-2.22c2.77-2,5.64-3.87,8.51-5.67a2.75,2.75,0,0,1,1.45-.42,2.71,2.71,0,0,1,2.3,1.27,2.74,2.74,0,0,1,.42,1.44,2.7,2.7,0,0,1-1.26,2.3h0l-.05,0c-2.78,1.75-5.55,3.6-8.23,5.49A2.72,2.72,0,0,1,123.15,79.26Zm200.63-9.58v0a2.81,2.81,0,0,1-1.35-.36c-2.87-1.65-5.82-3.23-8.76-4.7h0a2.72,2.72,0,0,1,1.22-5.15,2.77,2.77,0,0,1,1.22.29c3,1.53,6.08,3.16,9,4.85a2.74,2.74,0,0,1,1,3.71A2.75,2.75,0,0,1,323.78,69.68ZM140.22,68.54a2.73,2.73,0,0,1-2.38-1.4,2.8,2.8,0,0,1-.34-1.33,2.73,2.73,0,0,1,1.4-2.37c2.95-1.64,6-3.22,9-4.7l.24-.12,0,0a2.66,2.66,0,0,1,1-.2,2.72,2.72,0,0,1,1.33,5.1h0l-.19.09c-3,1.44-5.92,3-8.78,4.57A2.76,2.76,0,0,1,140.22,68.54Zm165.5-7.93a2.73,2.73,0,0,1-1.09-.23c-3-1.32-6.13-2.57-9.24-3.73a2.73,2.73,0,0,1-1.77-2.56,2.69,2.69,0,0,1,.17-.93,2.75,2.75,0,0,1,2.55-1.78,2.59,2.59,0,0,1,1,.18c3.2,1.19,6.4,2.48,9.52,3.84a2.71,2.71,0,0,1,1.63,2.49,2.77,2.77,0,0,1-.23,1.09A2.71,2.71,0,0,1,305.72,60.61Zm-147.38-.89a2.72,2.72,0,0,1-2.51-1.66,2.78,2.78,0,0,1-.21-1.06,2.69,2.69,0,0,1,1.66-2.5c3.13-1.32,6.34-2.57,9.53-3.72a2.82,2.82,0,0,1,.92-.16,2.72,2.72,0,0,1,2.55,1.8,2.61,2.61,0,0,1,.16.91,2.71,2.71,0,0,1-1.8,2.57c-3.09,1.11-6.2,2.33-9.24,3.61A2.78,2.78,0,0,1,158.34,59.72Zm128.43-6.17v0a2.74,2.74,0,0,1-.81-.12c-3.15-1-6.38-1.89-9.58-2.7h0a2.74,2.74,0,0,1-2-2.62,3.23,3.23,0,0,1,.08-.68,2.73,2.73,0,0,1,2.64-2.05,3.07,3.07,0,0,1,.67.08c3.3.84,6.62,1.78,9.86,2.79a2.7,2.7,0,0,1,1.91,2.59,2.75,2.75,0,0,1-.13.81A2.7,2.7,0,0,1,286.77,53.55Zm-109.46-.64a2.73,2.73,0,0,1-2.6-1.94,2.54,2.54,0,0,1-.11-.78,2.71,2.71,0,0,1,1.94-2.6c3.25-1,6.58-1.87,9.89-2.67a2.75,2.75,0,0,1,3.28,2,2.81,2.81,0,0,1,.07.65,2.71,2.71,0,0,1-2.08,2.63c-3.16.76-6.34,1.61-9.46,2.54l-.15,0A2.88,2.88,0,0,1,177.31,52.91ZM267.2,48.6a2.29,2.29,0,0,1-.52-.05c-3.24-.63-6.54-1.19-9.81-1.65a2.71,2.71,0,0,1-2.34-2.69,2.48,2.48,0,0,1,0-.38,2.74,2.74,0,0,1,3.07-2.31c3.36.47,6.75,1,10.08,1.69h.08l.31.06H268a2.73,2.73,0,0,1,1.9,2.6,2.94,2.94,0,0,1-.05.51A2.72,2.72,0,0,1,267.2,48.6Zm-70.26-.41A2.73,2.73,0,0,1,194.26,46a2.52,2.52,0,0,1,0-.48,2.71,2.71,0,0,1,2.23-2.68c3.35-.62,6.75-1.15,10.12-1.58a2.74,2.74,0,0,1,3,2.35c0,.12,0,.23,0,.35a2.72,2.72,0,0,1-2.37,2.69c-3.28.43-6.59.94-9.83,1.54h-.05A2.12,2.12,0,0,1,196.94,48.19Zm50.28-2.39v0H247c-3.28-.29-6.62-.48-9.93-.59a2.71,2.71,0,0,1-2.63-2.7v-.11a2.72,2.72,0,0,1,2.8-2.63c3.41.12,6.85.32,10.23.61a2.7,2.7,0,0,1,2.48,2.7,1.93,1.93,0,0,1,0,.24A2.73,2.73,0,0,1,247.22,45.8ZM217,45.62a2.74,2.74,0,0,1-2.71-2.52v-.21a2.73,2.73,0,0,1,2.48-2.7h.1c3.36-.25,6.78-.41,10.16-.48H227a2.73,2.73,0,0,1,2.72,2.66v.07a2.71,2.71,0,0,1-2.66,2.7c-3.3.07-6.65.23-9.94.47Z"/><path class="cls-3" d="M357.69,51.47a12.24,12.24,0,1,1,12.24-12.24A12.25,12.25,0,0,1,357.69,51.47Zm0-20.59A8.36,8.36,0,1,0,366,39.23,8.36,8.36,0,0,0,357.69,30.88Z"/><path class="cls-3" d="M436,345.44a8.74,8.74,0,1,1,8.74-8.74A8.75,8.75,0,0,1,436,345.44Zm0-15.15a6.41,6.41,0,1,0,6.41,6.41A6.42,6.42,0,0,0,436,330.29Z"/><path class="cls-3" d="M112.71,417.77A12.24,12.24,0,1,1,125,405.53,12.25,12.25,0,0,1,112.71,417.77Zm0-20.59a8.36,8.36,0,1,0,8.35,8.35A8.36,8.36,0,0,0,112.71,397.18Z"/><path class="cls-3" d="M135.53,33.11h0a.87.87,0,0,1-.87-.87V29.81a.87.87,0,0,1,.87-.87h0a.87.87,0,0,1,.88.87v2.43A.87.87,0,0,1,135.53,33.11Z"/><path class="cls-3" d="M135.53,40h0a.87.87,0,0,1-.87-.87V36.69a.87.87,0,0,1,.87-.87h0a.87.87,0,0,1,.88.87v2.43A.87.87,0,0,1,135.53,40Z"/><path class="cls-3" d="M141.29,34.46h0a.87.87,0,0,0-.87-.87H138a.87.87,0,0,0-.87.87h0a.87.87,0,0,0,.87.88h2.43A.87.87,0,0,0,141.29,34.46Z"/><path class="cls-3" d="M134,34.46h0a.87.87,0,0,0-.87-.87h-2.43a.87.87,0,0,0-.87.87h0a.87.87,0,0,0,.87.88h2.43A.87.87,0,0,0,134,34.46Z"/><path class="cls-3" d="M383.32,65.19h0a.76.76,0,0,1-.76-.76V62.31a.76.76,0,0,1,.76-.76h0a.76.76,0,0,1,.76.76v2.12A.76.76,0,0,1,383.32,65.19Z"/><path class="cls-3" d="M383.32,71.18h0a.76.76,0,0,1-.76-.76V68.31a.76.76,0,0,1,.76-.76h0a.76.76,0,0,1,.76.76v2.11A.76.76,0,0,1,383.32,71.18Z"/><path class="cls-3" d="M388.34,66.37h0a.76.76,0,0,0-.76-.76h-2.12a.76.76,0,0,0-.76.76h0a.76.76,0,0,0,.76.76h2.12A.76.76,0,0,0,388.34,66.37Z"/><path class="cls-3" d="M382,66.37h0a.76.76,0,0,0-.76-.76h-2.11a.76.76,0,0,0-.76.76h0a.76.76,0,0,0,.76.76h2.11A.76.76,0,0,0,382,66.37Z"/><path class="cls-3" d="M116.77,10.94h0a1.43,1.43,0,0,1-1.42-1.43v-4a1.43,1.43,0,0,1,1.42-1.42h0a1.43,1.43,0,0,1,1.43,1.42v4A1.43,1.43,0,0,1,116.77,10.94Z"/><path class="cls-3" d="M116.77,22.17h0a1.43,1.43,0,0,1-1.42-1.42v-4a1.43,1.43,0,0,1,1.42-1.43h0a1.43,1.43,0,0,1,1.43,1.43v4A1.43,1.43,0,0,1,116.77,22.17Z"/><path class="cls-3" d="M126.17,13.15h0a1.42,1.42,0,0,0-1.42-1.42h-4a1.42,1.42,0,0,0-1.43,1.42h0a1.42,1.42,0,0,0,1.43,1.42h4A1.42,1.42,0,0,0,126.17,13.15Z"/><path class="cls-3" d="M114.28,13.15h0a1.42,1.42,0,0,0-1.42-1.42h-4a1.42,1.42,0,0,0-1.43,1.42h0a1.42,1.42,0,0,0,1.43,1.42h4A1.42,1.42,0,0,0,114.28,13.15Z"/><path class="cls-3" d="M47,398.5h0a2.75,2.75,0,0,1-2.75-2.76v-7.66A2.75,2.75,0,0,1,47,385.33h0a2.76,2.76,0,0,1,2.76,2.75v7.66A2.76,2.76,0,0,1,47,398.5Z"/><path class="cls-3" d="M47,420.23h0a2.75,2.75,0,0,1-2.75-2.75v-7.67A2.75,2.75,0,0,1,47,407.06h0a2.76,2.76,0,0,1,2.76,2.75v7.67A2.76,2.76,0,0,1,47,420.23Z"/><path class="cls-3" d="M65.18,402.78h0A2.76,2.76,0,0,0,62.42,400H54.76A2.76,2.76,0,0,0,52,402.78h0a2.76,2.76,0,0,0,2.76,2.75h7.66A2.76,2.76,0,0,0,65.18,402.78Z"/><path class="cls-3" d="M42.17,402.78h0A2.75,2.75,0,0,0,39.42,400H31.75A2.75,2.75,0,0,0,29,402.78h0a2.75,2.75,0,0,0,2.75,2.75h7.67A2.75,2.75,0,0,0,42.17,402.78Z"/><path class="cls-2" d="M142.59,426.25a6,6,0,1,1-6-6A6,6,0,0,1,142.59,426.25Z"/><path class="cls-3" d="M136.57,433.44a7.19,7.19,0,1,1,7.18-7.19A7.2,7.2,0,0,1,136.57,433.44Zm0-12a4.86,4.86,0,1,0,4.85,4.85A4.85,4.85,0,0,0,136.57,421.4Z"/><circle class="cls-2" cx="380.18" cy="385.33" r="11.65" transform="translate(-161.12 381.69) rotate(-45)"/><path class="cls-3" d="M380.18,398.53a13.21,13.21,0,1,1,13.2-13.2A13.22,13.22,0,0,1,380.18,398.53Zm0-23.3a10.1,10.1,0,1,0,10.1,10.1A10.11,10.11,0,0,0,380.18,375.23Z"/><path class="cls-3" d="M19.48,157.38h0a1.79,1.79,0,0,1-1.79-1.79v-5a1.8,1.8,0,0,1,1.79-1.8h0a1.8,1.8,0,0,1,1.79,1.8v5A1.79,1.79,0,0,1,19.48,157.38Z"/><path class="cls-3" d="M19.48,171.52h0a1.79,1.79,0,0,1-1.79-1.79v-5A1.79,1.79,0,0,1,19.48,163h0a1.79,1.79,0,0,1,1.79,1.79v5A1.79,1.79,0,0,1,19.48,171.52Z"/><path class="cls-3" d="M31.31,160.17h0a1.8,1.8,0,0,0-1.79-1.8h-5a1.8,1.8,0,0,0-1.79,1.8h0A1.79,1.79,0,0,0,24.53,162h5A1.79,1.79,0,0,0,31.31,160.17Z"/><path class="cls-3" d="M16.35,160.17h0a1.8,1.8,0,0,0-1.79-1.8h-5a1.8,1.8,0,0,0-1.79,1.8h0A1.79,1.79,0,0,0,9.57,162h5A1.79,1.79,0,0,0,16.35,160.17Z"/><path class="cls-3" d="M335.59,191.28h0a1.16,1.16,0,0,1-1.16-1.15v-3.22a1.16,1.16,0,0,1,1.16-1.15h0a1.15,1.15,0,0,1,1.15,1.15v3.22A1.15,1.15,0,0,1,335.59,191.28Z"/><path class="cls-3" d="M335.59,200.39h0a1.16,1.16,0,0,1-1.16-1.16V196a1.15,1.15,0,0,1,1.16-1.15h0a1.14,1.14,0,0,1,1.15,1.15v3.21A1.15,1.15,0,0,1,335.59,200.39Z"/><path class="cls-3" d="M343.21,193.07h0a1.16,1.16,0,0,0-1.16-1.15h-3.21a1.15,1.15,0,0,0-1.15,1.15h0a1.15,1.15,0,0,0,1.15,1.16h3.21A1.16,1.16,0,0,0,343.21,193.07Z"/><path class="cls-3" d="M333.57,193.07h0a1.16,1.16,0,0,0-1.16-1.15H329.2a1.16,1.16,0,0,0-1.15,1.15h0a1.16,1.16,0,0,0,1.15,1.16h3.21A1.16,1.16,0,0,0,333.57,193.07Z"/><path class="cls-3" d="M364,164.69h0a1.92,1.92,0,0,1-1.93-1.92v-5.36a1.92,1.92,0,0,1,1.93-1.93h0a1.92,1.92,0,0,1,1.92,1.93v5.36A1.92,1.92,0,0,1,364,164.69Z"/><path class="cls-3" d="M364,179.89h0a1.92,1.92,0,0,1-1.93-1.92v-5.36a1.92,1.92,0,0,1,1.93-1.93h0a1.92,1.92,0,0,1,1.92,1.93V178A1.92,1.92,0,0,1,364,179.89Z"/><path class="cls-3" d="M376.76,167.69h0a1.93,1.93,0,0,0-1.93-1.93h-5.36a1.93,1.93,0,0,0-1.93,1.93h0a1.93,1.93,0,0,0,1.93,1.92h5.36A1.93,1.93,0,0,0,376.76,167.69Z"/><path class="cls-3" d="M360.67,167.69h0a1.93,1.93,0,0,0-1.93-1.93h-5.36a1.93,1.93,0,0,0-1.93,1.93h0a1.93,1.93,0,0,0,1.93,1.92h5.36A1.93,1.93,0,0,0,360.67,167.69Z"/><path class="cls-5" d="M269,112a10.16,10.16,0,1,1,10.15-10.16A10.17,10.17,0,0,1,269,112Zm0-18.31a8.16,8.16,0,1,0,8.15,8.15A8.16,8.16,0,0,0,269,93.71Z"/><path class="cls-5" d="M300.58,126.8a5.16,5.16,0,1,1,5.16-5.16A5.17,5.17,0,0,1,300.58,126.8Zm0-8.32a3.16,3.16,0,1,0,3.16,3.16A3.17,3.17,0,0,0,300.58,118.48Z"/><rect class="cls-2" x="115.89" y="154.67" width="197.4" height="131.67" rx="13.54"/><path class="cls-6" d="M313.29,168.21v19.62H115.89V168.21a13.57,13.57,0,0,1,13.53-13.54H299.76A13.57,13.57,0,0,1,313.29,168.21Z"/><path class="cls-3" d="M299.76,288.85H259.71a2.5,2.5,0,1,1,0-5h40.05c9.06,0,10.83-9.85,11-11.21V168.21a2.5,2.5,0,1,1,5,0V273l0,.16C315.09,278.56,310.87,288.85,299.76,288.85Z"/><path class="cls-3" d="M250.69,288.85H246a2.5,2.5,0,0,1,0-5h4.7a2.5,2.5,0,0,1,0,5Z"/><path class="cls-3" d="M235.74,288.85H129.27l-.16,0c-5.44-.68-15.72-4.61-15.72-14.61V165.89l.08-.32c.14-.54,3.6-13.14,14.17-13.28,8.72-.12,172.21,0,173.86,0h.28l.28.06c4.75,1.08,13.73,6.07,13.73,17.24a2.5,2.5,0,0,1-5,0c0-9.24-8.05-11.88-9.6-12.3-8,0-165-.12-173.48,0-6.15.08-8.83,7.7-9.32,9.28V274.22c0,7.68,9.84,9.42,11.21,9.63H235.74a2.5,2.5,0,0,1,0,5Z"/><path class="cls-3" d="M279.07,190.33H108.74a2.5,2.5,0,1,1,0-5H279.07a2.5,2.5,0,0,1,0,5Z"/><path class="cls-3" d="M296.37,190.33h-6.91a2.5,2.5,0,0,1,0-5h6.91a2.5,2.5,0,0,1,0,5Z"/><path class="cls-3" d="M144.37,166.74a2.5,2.5,0,0,1-2.5-2.5V144.78a2.5,2.5,0,1,1,5,0v19.46A2.5,2.5,0,0,1,144.37,166.74Z"/><path class="cls-3" d="M161.85,167a2.5,2.5,0,0,1-2.5-2.5V145a2.5,2.5,0,0,1,5,0v19.46A2.5,2.5,0,0,1,161.85,167Z"/><path class="cls-3" d="M179.34,167.19a2.5,2.5,0,0,1-2.5-2.5V145.24a2.5,2.5,0,0,1,5,0v19.45A2.5,2.5,0,0,1,179.34,167.19Z"/><path class="cls-3" d="M196.82,167.42a2.5,2.5,0,0,1-2.5-2.5V145.46a2.5,2.5,0,1,1,5,0v19.46A2.5,2.5,0,0,1,196.82,167.42Z"/><path class="cls-3" d="M214.31,167.65a2.5,2.5,0,0,1-2.5-2.5V145.69a2.5,2.5,0,0,1,5,0v19.46A2.5,2.5,0,0,1,214.31,167.65Z"/><path class="cls-3" d="M231.79,167.88a2.5,2.5,0,0,1-2.5-2.5V145.92a2.5,2.5,0,0,1,5,0v19.46A2.5,2.5,0,0,1,231.79,167.88Z"/><path class="cls-3" d="M249.28,168.11a2.5,2.5,0,0,1-2.5-2.5V146.15a2.5,2.5,0,0,1,5,0v19.46A2.5,2.5,0,0,1,249.28,168.11Z"/><path class="cls-3" d="M266.76,168.34a2.5,2.5,0,0,1-2.5-2.5V146.38a2.5,2.5,0,0,1,5,0v19.46A2.5,2.5,0,0,1,266.76,168.34Z"/><path class="cls-3" d="M284.24,168.57a2.5,2.5,0,0,1-2.5-2.5V146.61a2.5,2.5,0,0,1,5,0v19.46A2.49,2.49,0,0,1,284.24,168.57Z"/><rect class="cls-5" x="143.71" y="202.12" width="18.39" height="18.39"/><rect class="cls-7" x="167.78" y="202.12" width="18.39" height="18.39"/><rect class="cls-7" x="191.84" y="202.12" width="18.39" height="18.39"/><rect class="cls-7" x="215.91" y="202.12" width="18.39" height="18.39"/><rect class="cls-7" x="239.97" y="202.12" width="18.39" height="18.39"/><rect class="cls-7" x="264.03" y="202.12" width="18.39" height="18.39"/><rect class="cls-5" x="143.71" y="225.53" width="18.39" height="18.39"/><rect class="cls-7" x="167.78" y="225.53" width="18.39" height="18.39"/><rect class="cls-7" x="191.84" y="225.53" width="18.39" height="18.39"/><rect class="cls-7" x="215.91" y="225.53" width="18.39" height="18.39"/><rect class="cls-7" x="239.97" y="225.53" width="18.39" height="18.39"/><rect class="cls-7" x="264.03" y="225.53" width="18.39" height="18.39"/><rect class="cls-5" x="143.71" y="248.93" width="18.39" height="18.39"/><rect class="cls-7" x="167.78" y="248.93" width="18.39" height="18.39"/><rect class="cls-7" x="191.84" y="248.93" width="18.39" height="18.39"/><rect class="cls-7" x="215.91" y="248.93" width="18.39" height="18.39"/><rect class="cls-7" x="239.97" y="248.93" width="18.39" height="18.39"/><rect class="cls-7" x="264.03" y="248.93" width="18.39" height="18.39"/><path class="cls-2" d="M343.21,303.12a45,45,0,1,1,8.76-7.74"/><path class="cls-3" d="M318.07,313.62a47.78,47.78,0,1,1,36-16.39,2.82,2.82,0,0,1-4.25-3.71,42.17,42.17,0,1,0-8.22,7.26,2.82,2.82,0,1,1,3.16,4.68A47.53,47.53,0,0,1,318.07,313.62Z"/><polyline class="cls-2" points="317.24 237.76 317.24 270.82 335.68 264.64"/><path class="cls-3" d="M314.42,274.74v-37a2.82,2.82,0,0,1,5.64,0V266.9L334.79,262a2.82,2.82,0,1,1,1.79,5.35Z"/><rect class="cls-7" x="143.09" y="307.67" width="105.52" height="8.92" rx="4"/><rect class="cls-7" x="179.78" y="321.04" width="45.98" height="8.92" rx="4"/><rect class="cls-7" x="123.72" y="307.67" width="13.65" height="8.92" rx="4"/></g></g></svg>