<svg xmlns="http://www.w3.org/2000/svg" viewBox="0 0 310.99 176.45"><defs><style>.cls-1{fill:#064754;}.cls-2{fill:#3a6c7c;}.cls-3{fill:#4b7585;}.cls-4{fill:#0b5a6a;}.cls-5,.cls-6{fill:#fff;}.cls-6{stroke:#a99574;}.cls-6,.cls-7{stroke-miterlimit:10;}.cls-7{fill:none;stroke:#fff;}.cls-8{fill:#999;}.cls-9{fill:#cdcccc;}</style></defs><title>Fichier 2</title><g id="Calque_2" data-name="Calque 2"><g id="Calque_1-2" data-name="Calque 1"><polygon class="cls-1" points="159.15 55.13 131.58 27.57 104.02 55.13 159.15 55.13"/><polygon class="cls-2" points="159.15 0 159.15 55.13 186.71 27.57 159.15 0"/><polygon class="cls-3" points="186.71 27.57 159.15 55.13 214.28 55.13 186.71 27.57"/><polygon class="cls-4" points="159.15 55.13 159.15 0 131.58 27.57 159.15 55.13"/><path class="cls-5" d="M11.31,136.68a21.19,21.19,0,0,1-8.3-8,23.26,23.26,0,0,1,0-22.94,21.39,21.39,0,0,1,8.34-8,24.44,24.44,0,0,1,11.87-2.88A24.74,24.74,0,0,1,33,96.79a19.72,19.72,0,0,1,7.44,5.39l-5.2,4.9A15.21,15.21,0,0,0,23.62,102a16.32,16.32,0,0,0-8,2,14.08,14.08,0,0,0-5.51,5.42,16.58,16.58,0,0,0,0,15.75,14.1,14.1,0,0,0,5.51,5.43,16.31,16.31,0,0,0,8,1.95,15.13,15.13,0,0,0,11.6-5.15l5.2,5a19.69,19.69,0,0,1-7.47,5.4,25,25,0,0,1-9.76,1.86A24.4,24.4,0,0,1,11.31,136.68Z"/><path class="cls-5" d="M99.51,128.9H77.81l-4.28,10H65.22l19.53-43.4h7.94L112.28,139h-8.43Zm-2.67-6.32-8.18-19-8.12,19Z"/><path class="cls-5" d="M170.31,139l-8.86-12.71q-.55.06-1.68.06H150V139h-8.06V95.55h17.85a24,24,0,0,1,9.83,1.86,14.27,14.27,0,0,1,6.42,5.33,15,15,0,0,1,2.23,8.24,14.74,14.74,0,0,1-2.39,8.44,14.23,14.23,0,0,1-6.85,5.27L179,139ZM167.4,104.6q-2.73-2.23-8-2.23H150v17.29h9.42q5.26,0,8-2.26a7.87,7.87,0,0,0,2.73-6.42A7.78,7.78,0,0,0,167.4,104.6Z"/><path class="cls-5" d="M239.5,128.9H217.8l-4.27,10h-8.31l19.53-43.4h7.93l19.6,43.4h-8.44Zm-2.66-6.32-8.19-19-8.12,19Z"/><path class="cls-5" d="M288.55,102.37H274.16V95.55H311v6.82H296.61V139h-8.06Z"/><path class="cls-5" d="M108.25,173.57c0,1.91.16,2,1,2.07l.39.06a.38.38,0,0,1,0,.52c-.8,0-1.61-.05-2.4-.05s-1.64,0-2.43.05a.38.38,0,0,1,0-.52l.39-.06c.85-.1,1-.16,1-2.07v-6.7c0-1.9-.16-2-1-2.07l-.39-.05c-.13-.13-.11-.45,0-.52.79,0,1.6.05,2.43.05s1.6,0,2.4-.05c.14.07.16.39,0,.52l-.39.05c-.85.11-1,.17-1,2.07Z"/><path class="cls-5" d="M126.16,175.7c.18.07.16.45,0,.52-.78,0-1.48-.05-2.2-.05s-1.62,0-2.41.05c-.15-.07-.22-.41,0-.52l.49-.09c.72-.13.77-.26.77-1.48v-7.36h0c-.48,1-.73,1.53-1.08,2.25l-1.54,3.17c-.62,1.26-1.52,3.25-1.84,4.1a.55.55,0,0,1-.47,0c-.31-1-1.08-2.73-1.49-3.64l-1.61-3.45c-.34-.76-.82-1.89-1-2.43h0c0,.88-.07,2.28-.1,3,0,1.1-.08,2.7-.08,4.18,0,1.19,0,1.45.8,1.6l.59.11c.13.11.13.45,0,.52-.66,0-1.22-.05-1.89-.05s-1.22,0-1.93.05a.39.39,0,0,1,0-.52l.31,0c.86-.11,1-.38,1.11-1.48s.18-2.3.27-4.17c.08-1.23.18-2.72.18-3.82,0-.85-.27-1.21-1-1.33l-.61-.11c-.11-.13-.09-.47.07-.52.54,0,1,.05,1.69.05s1.26,0,1.93-.05a8.12,8.12,0,0,0,1,3l2,4.16c.14.3.61,1.2.85,1.62.29-.53.52-1,.93-1.88l1.7-3.45a18.71,18.71,0,0,0,1.45-3.44c.49,0,1.08.05,1.48.05.76,0,1.39,0,1.89-.05a.31.31,0,0,1,.06.52l-.6.09c-.79.13-1,.41-1,1.37,0,2.66,0,5.33.16,8,0,1.21.25,1.32.83,1.41Z"/><path class="cls-5" d="M142.74,175.7c.18.07.16.45,0,.52-.77,0-1.47-.05-2.19-.05s-1.62,0-2.42.05c-.14-.07-.21-.41,0-.52l.48-.09c.72-.13.78-.26.78-1.48v-7.36h0c-.48,1-.74,1.53-1.08,2.25l-1.55,3.17c-.61,1.26-1.51,3.25-1.83,4.1a.55.55,0,0,1-.47,0c-.31-1-1.08-2.73-1.5-3.64l-1.6-3.45c-.34-.76-.83-1.89-1-2.43h0c0,.88-.07,2.28-.11,3,0,1.1-.07,2.7-.07,4.18,0,1.19,0,1.45.79,1.6l.6.11c.12.11.12.45,0,.52-.67,0-1.22-.05-1.89-.05s-1.22,0-1.93.05a.39.39,0,0,1-.05-.52l.3,0c.87-.11,1-.38,1.12-1.48s.18-2.3.27-4.17c.07-1.23.18-2.72.18-3.82,0-.85-.27-1.21-1-1.33l-.61-.11c-.11-.13-.09-.47.07-.52.54,0,1,.05,1.69.05s1.26,0,1.93-.05a8.12,8.12,0,0,0,1,3l2,4.16c.14.3.61,1.2.85,1.62.28-.53.52-1,.93-1.88l1.69-3.45a18.1,18.1,0,0,0,1.46-3.44c.49,0,1.08.05,1.48.05.75,0,1.39,0,1.89-.05a.31.31,0,0,1,0,.52l-.59.09c-.79.13-1,.41-1,1.37,0,2.66,0,5.33.16,8,.05,1.21.25,1.32.83,1.41Z"/><path class="cls-5" d="M157.05,170.26a6.1,6.1,0,0,1-6.34,6.19,6,6,0,0,1-6.41-6.06,6.2,6.2,0,0,1,6.45-6.4A6,6,0,0,1,157.05,170.26Zm-10.3-.4c0,2.49,1.06,5.87,4.14,5.87,2.05,0,3.71-1.53,3.71-5.15,0-2.72-1.22-5.87-4.09-5.87C148.71,164.71,146.75,166,146.75,169.86Z"/><path class="cls-5" d="M159.94,167c0-1.73,0-1.94-.86-2l-.47-.06a.35.35,0,0,1,0-.5c.81-.07,2.12-.16,4.1-.16a7.31,7.31,0,0,1,3.53.61,2.47,2.47,0,0,1,1.26,2.34,2.53,2.53,0,0,1-2,2.29.14.14,0,0,0-.11.11s0,.07.14.1a3.13,3.13,0,0,1,2.9,3.14,3,3,0,0,1-1.1,2.39c-.84.7-2,1-4.08,1-.79,0-1.55-.05-2.24-.05s-1.63,0-2.43.05a.38.38,0,0,1,0-.52l.39-.06c.85-.1,1-.16,1-2.07Zm2.09,2c0,.47.05.49.78.49,1.69,0,2.46-.67,2.46-2.29A2.11,2.11,0,0,0,163,165c-.91,0-1,0-1,.75Zm0,4.23c0,1.64.18,2.31,1.75,2.31a2.25,2.25,0,0,0,2.34-2.41c0-1.86-1.26-3-3.26-3-.79,0-.83.11-.83.47Z"/><path class="cls-5" d="M173.32,173.57c0,1.91.16,2,1,2.07l.39.06a.38.38,0,0,1,0,.52c-.8,0-1.61-.05-2.4-.05s-1.64,0-2.43.05c-.14-.07-.16-.4,0-.52l.4-.06c.85-.1,1-.16,1-2.07v-6.7c0-1.9-.16-2-1-2.07l-.4-.05c-.12-.13-.1-.45,0-.52.79,0,1.6.05,2.43.05s1.6,0,2.4-.05c.14.07.16.39,0,.52l-.39.05c-.85.11-1,.17-1,2.07Z"/><path class="cls-5" d="M179.69,173.19a3.17,3.17,0,0,0,.31,1.86c.21.25.5.39,1.94.39,2,0,2.29-.09,3.11-1.94a.47.47,0,0,1,.56.11,17.63,17.63,0,0,1-.75,2.61c-.76,0-2.31-.05-4.32-.05h-1.88c-.91,0-1.82,0-2.57.05-.15-.07-.2-.43,0-.52l.54-.09c.85-.15,1-.17,1-2v-6.7c0-1.87-.16-1.92-1-2.05l-.5-.07c-.13-.09-.13-.45,0-.52.9,0,1.71.05,2.54.05s1.61,0,2.4-.05a.35.35,0,0,1,0,.52l-.39.07c-.85.15-1,.18-1,2.05Z"/><path class="cls-5" d="M189.77,173.57c0,1.91.16,2,1,2.07l.39.06a.38.38,0,0,1,0,.52c-.79,0-1.6-.05-2.4-.05s-1.64,0-2.43.05a.38.38,0,0,1,0-.52l.39-.06c.85-.1,1-.16,1-2.07v-6.7c0-1.9-.16-2-1-2.07l-.39-.05c-.13-.13-.11-.45,0-.52.79,0,1.61.05,2.43.05s1.61,0,2.4-.05c.14.07.16.39,0,.52l-.39.05c-.85.11-1,.17-1,2.07Z"/><path class="cls-5" d="M194.05,166.87c0-1.9-.16-2-1-2.08l-.28,0c-.13-.13-.11-.45,0-.52.69,0,1.53.05,2.32.05h3.44c1.16,0,2.2,0,2.43-.05.08.3.18,1.73.29,2.5-.07.14-.43.18-.57.07-.29-1-.56-1.47-1.14-1.64a6.48,6.48,0,0,0-1.44-.16h-1.2c-.78,0-.78,0-.78,1.06v3.05c0,.47,0,.48.43.48h.87c1.56,0,1.83,0,2-.79l.12-.61c.15-.13.49-.13.58,0,0,.48-.06,1.13-.06,1.8s0,1.31.06,1.89a.55.55,0,0,1-.58,0l-.12-.72c-.13-.76-.44-.8-2-.8h-.87c-.41,0-.43,0-.43.49v2.29a3.19,3.19,0,0,0,.31,1.87c.21.25.52.38,2,.39,2.29,0,2.68-.48,3.31-1.94a.43.43,0,0,1,.58.11,11.37,11.37,0,0,1-.76,2.61c-.79,0-2.34-.05-4.44-.05h-2.06c-.79,0-1.89,0-2.7.05a.38.38,0,0,1,0-.52l.66-.07c.85-.09,1-.15,1-2.06Z"/><path class="cls-5" d="M204.49,167c0-1.73,0-1.94-.86-2l-.47-.06a.35.35,0,0,1,0-.5c1.13-.11,2.66-.16,4.14-.16a7.59,7.59,0,0,1,3.42.61,2.82,2.82,0,0,1,1.58,2.63,3.09,3.09,0,0,1-2.16,2.84c-.1.06-.07.2,0,.31,1.44,2.43,2.34,4,3.19,4.66a2.29,2.29,0,0,0,1.24.56.34.34,0,0,1,0,.36,4.59,4.59,0,0,1-1.19.11c-1.73,0-2.66-.7-3.76-2.38-.49-.75-1-1.74-1.42-2.45a1,1,0,0,0-1.12-.61c-.54,0-.56,0-.56.4v2.3c0,1.91.16,2,1,2.07l.4.06c.12.12.1.45,0,.52-.79,0-1.6-.05-2.4-.05s-1.6,0-2.43.05a.36.36,0,0,1,0-.52l.39-.06c.85-.1,1-.16,1-2.07Zm2.09,2.6c0,.57,0,.61.87.61a2.26,2.26,0,0,0,2.57-2.58,2.49,2.49,0,0,0-2.48-2.66c-.94,0-1,.05-1,.88Z"/><line class="cls-6" x1="104.01" y1="152.23" x2="214.28" y2="152.23"/><path class="cls-5" d="M11.31,136.68a21.19,21.19,0,0,1-8.3-8,23.26,23.26,0,0,1,0-22.94,21.39,21.39,0,0,1,8.34-8,24.44,24.44,0,0,1,11.87-2.88A24.74,24.74,0,0,1,33,96.79a19.72,19.72,0,0,1,7.44,5.39l-5.2,4.9A15.21,15.21,0,0,0,23.62,102a16.32,16.32,0,0,0-8,2,14.08,14.08,0,0,0-5.51,5.42,16.58,16.58,0,0,0,0,15.75,14.1,14.1,0,0,0,5.51,5.43,16.31,16.31,0,0,0,8,1.95,15.13,15.13,0,0,0,11.6-5.15l5.2,5a19.69,19.69,0,0,1-7.47,5.4,25,25,0,0,1-9.76,1.86A24.4,24.4,0,0,1,11.31,136.68Z"/><path class="cls-5" d="M99.51,128.9H77.81l-4.28,10H65.22l19.53-43.4h7.94L112.28,139h-8.43Zm-2.67-6.32-8.18-19-8.12,19Z"/><path class="cls-5" d="M170.31,139l-8.86-12.71q-.55.06-1.68.06H150V139h-8.06V95.55h17.85a24,24,0,0,1,9.83,1.86,14.27,14.27,0,0,1,6.42,5.33,15,15,0,0,1,2.23,8.24,14.74,14.74,0,0,1-2.39,8.44,14.23,14.23,0,0,1-6.85,5.27L179,139ZM167.4,104.6q-2.73-2.23-8-2.23H150v17.29h9.42q5.26,0,8-2.26a7.87,7.87,0,0,0,2.73-6.42A7.78,7.78,0,0,0,167.4,104.6Z"/><path class="cls-5" d="M239.5,128.9H217.8l-4.27,10h-8.31l19.53-43.4h7.93l19.6,43.4h-8.44Zm-2.66-6.32-8.19-19-8.12,19Z"/><path class="cls-5" d="M288.55,102.37H274.16V95.55H311v6.82H296.61V139h-8.06Z"/><path class="cls-5" d="M108.25,173.57c0,1.91.16,2,1,2.07l.39.06a.38.38,0,0,1,0,.52c-.8,0-1.61-.05-2.4-.05s-1.64,0-2.43.05a.38.38,0,0,1,0-.52l.39-.06c.85-.1,1-.16,1-2.07v-6.7c0-1.9-.16-2-1-2.07l-.39-.05c-.13-.13-.11-.45,0-.52.79,0,1.6.05,2.43.05s1.6,0,2.4-.05c.14.07.16.39,0,.52l-.39.05c-.85.11-1,.17-1,2.07Z"/><path class="cls-5" d="M126.16,175.7c.18.07.16.45,0,.52-.78,0-1.48-.05-2.2-.05s-1.62,0-2.41.05c-.15-.07-.22-.41,0-.52l.49-.09c.72-.13.77-.26.77-1.48v-7.36h0c-.48,1-.73,1.53-1.08,2.25l-1.54,3.17c-.62,1.26-1.52,3.25-1.84,4.1a.55.55,0,0,1-.47,0c-.31-1-1.08-2.73-1.49-3.64l-1.61-3.45c-.34-.76-.82-1.89-1-2.43h0c0,.88-.07,2.28-.1,3,0,1.1-.08,2.7-.08,4.18,0,1.19,0,1.45.8,1.6l.59.11c.13.11.13.45,0,.52-.66,0-1.22-.05-1.89-.05s-1.22,0-1.93.05a.39.39,0,0,1,0-.52l.31,0c.86-.11,1-.38,1.11-1.48s.18-2.3.27-4.17c.08-1.23.18-2.72.18-3.82,0-.85-.27-1.21-1-1.33l-.61-.11c-.11-.13-.09-.47.07-.52.54,0,1,.05,1.69.05s1.26,0,1.93-.05a8.12,8.12,0,0,0,1,3l2,4.16c.14.3.61,1.2.85,1.62.29-.53.52-1,.93-1.88l1.7-3.45a18.71,18.71,0,0,0,1.45-3.44c.49,0,1.08.05,1.48.05.76,0,1.39,0,1.89-.05a.31.31,0,0,1,.06.52l-.6.09c-.79.13-1,.41-1,1.37,0,2.66,0,5.33.16,8,0,1.21.25,1.32.83,1.41Z"/><path class="cls-5" d="M142.74,175.7c.18.07.16.45,0,.52-.77,0-1.47-.05-2.19-.05s-1.62,0-2.42.05c-.14-.07-.21-.41,0-.52l.48-.09c.72-.13.78-.26.78-1.48v-7.36h0c-.48,1-.74,1.53-1.08,2.25l-1.55,3.17c-.61,1.26-1.51,3.25-1.83,4.1a.55.55,0,0,1-.47,0c-.31-1-1.08-2.73-1.5-3.64l-1.6-3.45c-.34-.76-.83-1.89-1-2.43h0c0,.88-.07,2.28-.11,3,0,1.1-.07,2.7-.07,4.18,0,1.19,0,1.45.79,1.6l.6.11c.12.11.12.45,0,.52-.67,0-1.22-.05-1.89-.05s-1.22,0-1.93.05a.39.39,0,0,1-.05-.52l.3,0c.87-.11,1-.38,1.12-1.48s.18-2.3.27-4.17c.07-1.23.18-2.72.18-3.82,0-.85-.27-1.21-1-1.33l-.61-.11c-.11-.13-.09-.47.07-.52.54,0,1,.05,1.69.05s1.26,0,1.93-.05a8.12,8.12,0,0,0,1,3l2,4.16c.14.3.61,1.2.85,1.62.28-.53.52-1,.93-1.88l1.69-3.45a18.1,18.1,0,0,0,1.46-3.44c.49,0,1.08.05,1.48.05.75,0,1.39,0,1.89-.05a.31.31,0,0,1,0,.52l-.59.09c-.79.13-1,.41-1,1.37,0,2.66,0,5.33.16,8,.05,1.21.25,1.32.83,1.41Z"/><path class="cls-5" d="M157.05,170.26a6.1,6.1,0,0,1-6.34,6.19,6,6,0,0,1-6.41-6.06,6.2,6.2,0,0,1,6.45-6.4A6,6,0,0,1,157.05,170.26Zm-10.3-.4c0,2.49,1.06,5.87,4.14,5.87,2.05,0,3.71-1.53,3.71-5.15,0-2.72-1.22-5.87-4.09-5.87C148.71,164.71,146.75,166,146.75,169.86Z"/><path class="cls-5" d="M159.94,167c0-1.73,0-1.94-.86-2l-.47-.06a.35.35,0,0,1,0-.5c.81-.07,2.12-.16,4.1-.16a7.31,7.31,0,0,1,3.53.61,2.47,2.47,0,0,1,1.26,2.34,2.53,2.53,0,0,1-2,2.29.14.14,0,0,0-.11.11s0,.07.14.1a3.13,3.13,0,0,1,2.9,3.14,3,3,0,0,1-1.1,2.39c-.84.7-2,1-4.08,1-.79,0-1.55-.05-2.24-.05s-1.63,0-2.43.05a.38.38,0,0,1,0-.52l.39-.06c.85-.1,1-.16,1-2.07Zm2.09,2c0,.47.05.49.78.49,1.69,0,2.46-.67,2.46-2.29A2.11,2.11,0,0,0,163,165c-.91,0-1,0-1,.75Zm0,4.23c0,1.64.18,2.31,1.75,2.31a2.25,2.25,0,0,0,2.34-2.41c0-1.86-1.26-3-3.26-3-.79,0-.83.11-.83.47Z"/><path class="cls-5" d="M173.32,173.57c0,1.91.16,2,1,2.07l.39.06a.38.38,0,0,1,0,.52c-.8,0-1.61-.05-2.4-.05s-1.64,0-2.43.05c-.14-.07-.16-.4,0-.52l.4-.06c.85-.1,1-.16,1-2.07v-6.7c0-1.9-.16-2-1-2.07l-.4-.05c-.12-.13-.1-.45,0-.52.79,0,1.6.05,2.43.05s1.6,0,2.4-.05c.14.07.16.39,0,.52l-.39.05c-.85.11-1,.17-1,2.07Z"/><path class="cls-5" d="M179.69,173.19a3.17,3.17,0,0,0,.31,1.86c.21.25.5.39,1.94.39,2,0,2.29-.09,3.11-1.94a.47.47,0,0,1,.56.11,17.63,17.63,0,0,1-.75,2.61c-.76,0-2.31-.05-4.32-.05h-1.88c-.91,0-1.82,0-2.57.05-.15-.07-.2-.43,0-.52l.54-.09c.85-.15,1-.17,1-2v-6.7c0-1.87-.16-1.92-1-2.05l-.5-.07c-.13-.09-.13-.45,0-.52.9,0,1.71.05,2.54.05s1.61,0,2.4-.05a.35.35,0,0,1,0,.52l-.39.07c-.85.15-1,.18-1,2.05Z"/><path class="cls-5" d="M189.77,173.57c0,1.91.16,2,1,2.07l.39.06a.38.38,0,0,1,0,.52c-.79,0-1.6-.05-2.4-.05s-1.64,0-2.43.05a.38.38,0,0,1,0-.52l.39-.06c.85-.1,1-.16,1-2.07v-6.7c0-1.9-.16-2-1-2.07l-.39-.05c-.13-.13-.11-.45,0-.52.79,0,1.61.05,2.43.05s1.61,0,2.4-.05c.14.07.16.39,0,.52l-.39.05c-.85.11-1,.17-1,2.07Z"/><path class="cls-5" d="M194.05,166.87c0-1.9-.16-2-1-2.08l-.28,0c-.13-.13-.11-.45,0-.52.69,0,1.53.05,2.32.05h3.44c1.16,0,2.2,0,2.43-.05.08.3.18,1.73.29,2.5-.07.14-.43.18-.57.07-.29-1-.56-1.47-1.14-1.64a6.48,6.48,0,0,0-1.44-.16h-1.2c-.78,0-.78,0-.78,1.06v3.05c0,.47,0,.48.43.48h.87c1.56,0,1.83,0,2-.79l.12-.61c.15-.13.49-.13.58,0,0,.48-.06,1.13-.06,1.8s0,1.31.06,1.89a.55.55,0,0,1-.58,0l-.12-.72c-.13-.76-.44-.8-2-.8h-.87c-.41,0-.43,0-.43.49v2.29a3.19,3.19,0,0,0,.31,1.87c.21.25.52.38,2,.39,2.29,0,2.68-.48,3.31-1.94a.43.43,0,0,1,.58.11,11.37,11.37,0,0,1-.76,2.61c-.79,0-2.34-.05-4.44-.05h-2.06c-.79,0-1.89,0-2.7.05a.38.38,0,0,1,0-.52l.66-.07c.85-.09,1-.15,1-2.06Z"/><path class="cls-5" d="M204.49,167c0-1.73,0-1.94-.86-2l-.47-.06a.35.35,0,0,1,0-.5c1.13-.11,2.66-.16,4.14-.16a7.59,7.59,0,0,1,3.42.61,2.82,2.82,0,0,1,1.58,2.63,3.09,3.09,0,0,1-2.16,2.84c-.1.06-.07.2,0,.31,1.44,2.43,2.34,4,3.19,4.66a2.29,2.29,0,0,0,1.24.56.34.34,0,0,1,0,.36,4.59,4.59,0,0,1-1.19.11c-1.73,0-2.66-.7-3.76-2.38-.49-.75-1-1.74-1.42-2.45a1,1,0,0,0-1.12-.61c-.54,0-.56,0-.56.4v2.3c0,1.91.16,2,1,2.07l.4.06c.12.12.1.45,0,.52-.79,0-1.6-.05-2.4-.05s-1.6,0-2.43.05a.36.36,0,0,1,0-.52l.39-.06c.85-.1,1-.16,1-2.07Zm2.09,2.6c0,.57,0,.61.87.61a2.26,2.26,0,0,0,2.57-2.58,2.49,2.49,0,0,0-2.48-2.66c-.94,0-1,.05-1,.88Z"/><line class="cls-7" x1="104.01" y1="152.23" x2="214.28" y2="152.23"/><polygon class="cls-8" points="159.15 55.13 131.58 27.57 104.02 55.13 159.15 55.13"/><polygon class="cls-9" points="159.15 0 159.15 55.13 186.71 27.57 159.15 0"/><polygon class="cls-5" points="186.71 27.57 159.15 55.13 214.28 55.13 186.71 27.57"/><polygon class="cls-9" points="159.15 55.13 159.15 0 131.58 27.57 159.15 55.13"/></g></g></svg>