<svg xmlns="http://www.w3.org/2000/svg" viewBox="0 0 1314.85 870.07"><defs><style>.cls-1{isolation:isolate;}.cls-2{fill:#f0a202;}.cls-12,.cls-3{fill:#ffe0a3;}.cls-11,.cls-3,.cls-8{mix-blend-mode:multiply;}.cls-4{fill:#fff2d9;}.cls-5,.cls-8{fill:#2171b8;}.cls-6{fill:#13426c;}.cls-7{fill:#fff;}.cls-8{opacity:0.3;}.cls-10,.cls-9{fill:#0e3252;}.cls-10{opacity:0.5;}</style></defs><title>img_dossier</title><g class="cls-1"><g id="Calque_2" data-name="Calque 2"><g id="Layer_6" data-name="Layer 6"><polygon class="cls-2" points="1314.85 672.05 1083.53 672.05 1062.25 520.61 1293.56 520.61 1314.85 672.05"/><path class="cls-2" d="M1131.8,499h-46.74a7.84,7.84,0,0,0-7.93,9.22l1.74,12.36h65.19l-1.73-12.36A11,11,0,0,0,1131.8,499Z"/><polygon class="cls-3" points="1143.22 514.61 1078.03 514.61 1078.87 520.61 1144.06 520.61 1143.22 514.61"/><path class="cls-3" d="M1144.06,520.61l-.84-6-.89-6.36A11,11,0,0,0,1131.8,499h-46.74a7.84,7.84,0,0,0-7.93,9.22l1.74,12.36h-16.62l21.28,151.44h90.81l-21.28-151.44Z"/><path class="cls-4" d="M461.45,52.15h0A63.74,63.74,0,0,1,524.12,0h4.61a63.72,63.72,0,0,1,62.51,51.37l.16.78Z"/><rect class="cls-4" x="528.73" width="226.99" height="52.15"/><polygon class="cls-3" points="845.61 184.5 820.68 52.15 591.4 52.15 616.32 184.5 845.61 184.5"/><polygon class="cls-3" points="849.04 202.73 619.75 202.73 709.51 679.39 938.8 679.39 849.04 202.73"/><path class="cls-5" d="M529.65,837.41h623.61l-55-391c-1.83-13-13.83-23.51-26.82-23.51H494.9c-13,0-22,10.53-20.21,23.51Z"/><path class="cls-6" d="M1095.61,837.41v32.66h197a22.22,22.22,0,0,0,22.22-22.22V837.41Z"/><path class="cls-5" d="M529.65,837.41h623.61a0,0,0,0,1,0,0v3.47a29.19,29.19,0,0,1-29.19,29.19H558.84a29.19,29.19,0,0,1-29.19-29.19v-3.47A0,0,0,0,1,529.65,837.41Z"/><ellipse class="cls-7" cx="813.86" cy="630.14" rx="45.46" ry="52.31" transform="translate(-211.13 724.16) rotate(-42.99)"/><rect class="cls-8" x="726.79" y="422.86" width="113.6" height="447.2"/><path class="cls-6" d="M785.2,837.41H161.58l55-391c1.82-13,13.83-23.51,26.81-23.51H820c13,0,22,10.53,20.2,23.51Z"/><polygon class="cls-4" points="196.86 806.48 246.43 453.8 808.18 453.8 758.61 806.48 196.86 806.48"/><path class="cls-9" d="M566,837.41v32.66H763a22.21,22.21,0,0,0,22.21-22.22V837.41Z"/><path class="cls-6" d="M0,837.41H612.54a0,0,0,0,1,0,0v3.47a29.19,29.19,0,0,1-29.19,29.19H29.19A29.19,29.19,0,0,1,0,840.88v-3.47a0,0,0,0,1,0,0Z"/><path class="cls-9" d="M337.42,848.13h-62.3a5.92,5.92,0,0,1-5.92-5.93v-4.79h74.14v4.79A5.92,5.92,0,0,1,337.42,848.13Z"/><polygon class="cls-10" points="161.58 837.41 785.2 837.41 787.34 822.18 163.72 822.18 161.58 837.41"/><polygon class="cls-7" points="754.94 806.48 595.77 806.48 474.46 453.8 633.62 453.8 754.94 806.48"/><polygon class="cls-7" points="546.46 806.48 483.36 806.48 362.05 453.8 425.14 453.8 546.46 806.48"/><polygon class="cls-3" points="182.01 692.05 243.99 692.05 269.85 545.4 202.62 545.4 182.01 692.05"/><path class="cls-3" d="M820,422.86H748L726.79,543.19h99.76l13.6-96.82C842,433.39,832.93,422.86,820,422.86Z"/><g class="cls-11"><polygon class="cls-12" points="611.79 720.24 323.89 720.24 357.13 531.75 645.03 531.75 611.79 720.24"/></g><polygon class="cls-4" points="682.53 95.77 690.74 52.15 461.45 52.15 453.24 95.77 682.53 95.77"/><polygon class="cls-4" points="631.69 365.77 679.1 114 449.81 114 402.4 365.77 631.69 365.77"/><polygon class="cls-4" points="398.96 384 343.34 679.39 572.63 679.39 628.25 384 398.96 384"/><g class="cls-11"><polygon class="cls-12" points="486.52 439.42 421.27 439.42 423.63 426.03 488.88 426.03 486.52 439.42"/><polygon class="cls-12" points="548.32 466.82 416.44 466.82 418.8 453.44 550.68 453.44 548.32 466.82"/><polygon class="cls-12" points="543.48 494.23 411.61 494.23 413.97 480.85 545.84 480.85 543.48 494.23"/><polygon class="cls-12" points="433.47 521.64 406.77 521.64 409.14 508.25 435.83 508.25 433.47 521.64"/></g><polygon class="cls-5" points="591.79 700.24 303.89 700.24 337.13 511.75 625.03 511.75 591.79 700.24"/><path class="cls-5" d="M432.21,484.89H374a14.29,14.29,0,0,0-13.5,11.48l-2.71,15.38H439l2.71-15.38C442.79,490,438.55,484.89,432.21,484.89Z"/><polygon class="cls-8" points="440.27 504.28 359.13 504.28 357.82 511.75 438.96 511.75 440.27 504.28"/><polygon class="cls-2" points="223.99 672.05 0 672.05 25.86 525.4 249.85 525.4 223.99 672.05"/><path class="cls-2" d="M99.83,504.51H54.57a11.13,11.13,0,0,0-10.51,8.93L42,525.4h63.13l2.11-12A7.29,7.29,0,0,0,99.83,504.51Z"/><polygon class="cls-3" points="106.11 519.59 42.98 519.59 41.95 525.4 105.08 525.4 106.11 519.59"/><polygon class="cls-2" points="930.78 523.19 706.79 523.19 732.64 376.54 956.64 376.54 930.78 523.19"/><path class="cls-2" d="M806.62,355.64H761.36a11.12,11.12,0,0,0-10.51,8.94l-2.11,12h63.13l2.11-12C814.85,359.64,811.55,355.64,806.62,355.64Z"/><polygon class="cls-3" points="812.89 370.73 749.76 370.73 748.74 376.54 811.87 376.54 812.89 370.73"/><path class="cls-12" d="M690.74,52.15h0A63.74,63.74,0,0,1,753.41,0H758a63.72,63.72,0,0,1,62.51,51.37l.15.78Z"/><g class="cls-11"><polygon class="cls-12" points="536.52 168.31 471.27 168.31 473.63 154.93 538.88 154.93 536.52 168.31"/><polygon class="cls-12" points="598.32 195.72 466.44 195.72 468.8 182.33 600.68 182.33 598.32 195.72"/><polygon class="cls-12" points="593.48 223.13 461.61 223.13 463.97 209.74 595.84 209.74 593.48 223.13"/><polygon class="cls-12" points="483.47 250.53 456.77 250.53 459.14 237.15 485.83 237.15 483.47 250.53"/></g><path class="cls-4" d="M1125.17,41h-2.38A76.66,76.66,0,0,0,978.28,76.66h-.95A38.33,38.33,0,0,0,939,115h0a38.33,38.33,0,0,0,38.33,38.32h147.84a56.17,56.17,0,0,0,56.17-56.17h0A56.17,56.17,0,0,0,1125.17,41Z"/><path class="cls-4" d="M293.7,215.8h-1.6a51.72,51.72,0,0,0-97.5,24.08H194a25.86,25.86,0,0,0-25.86,25.86h0A25.86,25.86,0,0,0,194,291.6H293.7a37.9,37.9,0,0,0,37.9-37.9h0A37.9,37.9,0,0,0,293.7,215.8Z"/><circle class="cls-5" cx="74.8" cy="376.54" r="25.43"/><path class="cls-5" d="M306.72,370H134.66a7.93,7.93,0,0,1-7.93-7.93h0a7.94,7.94,0,0,1,7.93-7.94H306.72a8,8,0,0,1,7.94,7.94h0A7.94,7.94,0,0,1,306.72,370Z"/><rect class="cls-5" x="126.73" y="383.05" width="97.93" height="15.87" rx="7.93"/><circle class="cls-12" cx="970.82" cy="285.49" r="25.43"/><path class="cls-12" d="M1202.74,279H1030.68a8,8,0,0,1-7.94-7.94h0a7.94,7.94,0,0,1,7.94-7.93h172.06a7.93,7.93,0,0,1,7.93,7.93h0A7.94,7.94,0,0,1,1202.74,279Z"/><path class="cls-12" d="M1112.74,307.86h-82.06a7.94,7.94,0,0,1-7.94-7.93h0a7.94,7.94,0,0,1,7.94-7.93h82.06a7.93,7.93,0,0,1,7.93,7.93h0A7.93,7.93,0,0,1,1112.74,307.86Z"/></g></g></g></svg>